<svg width="32" height="32" viewBox="0 0 32 32" fill="none" xmlns="http://www.w3.org/2000/svg">
<path d="M13.125 21.5938H10.8125C7.74688 21.5938 5.25 19.0969 5.25 16.0312C5.25 12.9656 7.74688 10.4688 10.8125 10.4688H13.0938C13.7156 10.4688 14.2188 10.9719 14.2188 11.5938C14.2188 12.2156 13.7156 12.7188 13.0938 12.7188H10.8125C8.9875 12.7188 7.5 14.2062 7.5 16.0312C7.5 17.8562 8.9875 19.3438 10.8125 19.3438H13.125C13.7469 19.3438 14.25 19.8469 14.25 20.4688C14.25 21.0906 13.7469 21.5938 13.125 21.5938ZM21.4062 21.5938H19.0938C18.4719 21.5938 17.9688 21.0906 17.9688 20.4688C17.9688 19.8469 18.4719 19.3438 19.0938 19.3438H21.4062C23.2313 19.3438 24.7188 17.8562 24.7188 16.0312C24.7188 14.2062 23.2313 12.7188 21.4062 12.7188H19.125C18.5031 12.7188 18 12.2156 18 11.5938C18 10.9719 18.5031 10.4688 19.125 10.4688H21.4062C24.4719 10.4688 26.9688 12.9656 26.9688 16.0312C26.9688 19.0969 24.4719 21.5938 21.4062 21.5938Z" fill="white"/>
<path d="M19.9062 17.1562H12.1875C11.5656 17.1562 11.0625 16.6531 11.0625 16.0312C11.0625 15.4094 11.5656 14.9062 12.1875 14.9062H19.9062C20.5281 14.9062 21.0312 15.4094 21.0312 16.0312C21.0312 16.6531 20.5281 17.1562 19.9062 17.1562Z" fill="white"/>
</svg>
