<svg width="23" height="22" viewBox="0 0 23 22" fill="none" xmlns="http://www.w3.org/2000/svg">
<path fill-rule="evenodd" clip-rule="evenodd" d="M18.8571 7.38571H15.2429C15.2429 7.38571 15.7143 5.81429 16.0286 2.98571C16.1857 1.57143 15.0857 0.157143 13.5143 0H13.2C11.9429 0 11.1571 0.785714 10.6857 1.88571L9.74286 4.24286C8.95714 5.81429 8.32857 6.75714 7.85714 7.07143C7.22857 7.38571 4.87143 7.38571 4.71429 7.38571H1.57143C0.628571 7.38571 0 8.01429 0 8.8V20.5857C0 21.3714 0.628571 22 1.57143 22H17.4429C19.8 22 20.4286 20.4286 20.7429 18.2286L22 10.6857C22.1571 8.95714 21.8429 7.38571 18.8571 7.38571ZM1.57141 20.5858V8.80005H6.28365V20.5858H1.57141ZM19.1714 18.0714L20.4286 10.5286C20.4286 10.4131 20.438 10.2882 20.4476 10.1607C20.4773 9.76803 20.5087 9.35159 20.2714 9.11431C19.9571 8.80002 19.6428 8.80002 19.1714 8.80002H13.2L13.8286 6.75716C13.8286 6.75716 14.3 5.18574 14.6143 2.67145C14.6143 2.20002 14.3 1.41431 13.5143 1.41431H13.3571C12.7286 1.41431 12.4143 1.72859 12.2571 2.20002C12.1 2.35716 11.7857 3.14287 11.1571 4.71428L11.1571 4.71431C10.0571 6.75716 9.27142 8.01431 8.48571 8.32859C8.01428 8.64288 7.38571 8.80002 6.28571 8.80002V20.5857H17.2857C18.6638 20.5857 18.8334 19.7397 19.0662 18.5776C19.0989 18.4146 19.1328 18.2454 19.1714 18.0714Z" fill="#00FFFF"/>
</svg>
